# xmcd
#
# Track frame offsets:
#	150
#	16102
#	29505
#	42387
#	55715
#	65165
#	82625
#	102977
#	112202
#	127362
#	143927
#	159447
#	177805
#	185785
#	207362
#	222582
#	234035
#
# Disc length: 3327 seconds
#
# Revision: 2
# Processed by: cddbd v1.5.2PL0 Copyright (c) Steve Scherf et al.
# Submitted via: EasyCDDAExtractor 16.0.6.1
#
DISCID=f70cfd11
DTITLE=Χορωδία - Τραγούδια για το 1821 2-Κρυφά λένε τα πουλιά
DYEAR=1996
DGENRE=Παραδοσιακή
TTITLE0=Κωνσταντινόπουλος Ν.-χορωδία - Μια προυσταγή μεγάλη 
TTITLE1=Κατσιναβάκη Μυρσίνη - Τι έχεις καϋμένε πλάτανε
TTITLE2=Γιακουνάκης Ανδρέας-χορωδία - Σε ψηλό βουνό 
TTITLE3=Παππάς Παναγιώτης - Στη μέση στην Αράχωβα 
TTITLE4=Χορωδία - Σαράντα κλέφτες 
TTITLE5=Μητροπάνος Χρυσόστομος - Της Τζαβέλαινας 
TTITLE6=Παππάς Παναγιώτης - Πιδιά μ' σαν θέλτι λιβιντιά 
TTITLE7=Κατσιναβάκη Μυρσίνη - Η κλεφτοπούλα 
TTITLE8=Ταμπούρης Πέτρος - Τα μύστικα
TTITLE9=Κωνσταντινόπουλος Ν. - Τρεις καλογέροι Κρητικοί 
TTITLE10=Γιακουνάκης Ανδρέας - Ο Δασκαλογιάννης [ποίηση μπαρμπα Πατζελιὸς]
TTITLE11=Κατσιναβάκη Μυρσίνη - Κρυφά το λένε τα πουλιά 
TTITLE12=Κωνσταντινόπουλος Ν. - Πότε θα γίνει ρεμπελιό 
TTITLE13=Μητροπάνος Χρυσόστομος - Ο παπα Γιώργης
TTITLE14=Κωνσταντινόπουλος Ν. - Τίποτις δεν εζήλεψα 
TTITLE15=Κατσιναβάκη Μυρσίνη - Νά 'μουν πουλί να πέταγα
TTITLE16=Μητροπάνος Χρυσόστομος - Ήρθαν καράβια στο γιαλό 
EXTD=
EXTT0=
EXTT1=
EXTT2=
EXTT3=
EXTT4=
EXTT5=
EXTT6=
EXTT7=
EXTT8=
EXTT9=
EXTT10=
EXTT11=
EXTT12=
EXTT13=
EXTT14=
EXTT15=
EXTT16=
PLAYORDER=
